<?xml version="1.0" encoding="utf-8"?>
<!-- Generator: Adobe Illustrator 17.1.0, SVG Export Plug-In . SVG Version: 6.00 Build 0)  -->
<!DOCTYPE svg PUBLIC "-//W3C//DTD SVG 1.1//EN" "http://www.w3.org/Graphics/SVG/1.1/DTD/svg11.dtd">
<svg version="1.1" id="Layer_1" xmlns="http://www.w3.org/2000/svg" xmlns:xlink="http://www.w3.org/1999/xlink" x="0px" y="0px"
	 viewBox="0 0 117.937 127.008" enable-background="new 0 0 117.937 127.008" xml:space="preserve">
<path fill-rule="evenodd" clip-rule="evenodd" fill="#B4162C" d="M6.543,21.333l-0.288-5.86c-0.013-0.262,0.052-0.575-0.275-0.575
	H4.188c-0.118,0-0.327-0.013-0.327,0.157c0,0.209,0.314,0.17,0.445,0.17c0.209,0,0.549,0,0.549,0.287
	c0,0.171-0.131,0.523-0.196,0.693l-2.067,5.508c-0.222,0.602-0.353,1.164-1.308,1.06c-0.131-0.014-0.288,0.026-0.288,0.223
	c0,0.17,0.261,0.104,0.353,0.104c0.34-0.014,0.68-0.053,1.021-0.053c0.432,0,0.876,0.039,1.308,0.053
	c0.104,0,0.209-0.014,0.209-0.157c0-0.196-0.222-0.17-0.327-0.17c-0.327,0-0.654-0.065-0.654-0.602c0-0.341,0.379-1.36,0.51-1.728
	l1.818-4.853l0.301,6.906c0,0.092-0.026,0.511,0.144,0.511c0.157,0,0.314-0.262,0.379-0.366l4.774-7.051l-1.491,6.148
	c-0.157,0.628-0.222,1.111-1.085,1.033c-0.144-0.014-0.327,0.026-0.327,0.223c0,0.17,0.301,0.104,0.405,0.104
	c0.393-0.014,0.798-0.053,1.204-0.053c0.51,0,1.021,0.039,1.53,0.053c0.118,0,0.249-0.014,0.249-0.157
	c0-0.196-0.261-0.17-0.392-0.17c-0.288,0-0.667,0-0.667-0.405c0-0.184,0.079-0.433,0.118-0.615l1.347-5.507
	c0.065-0.275,0.144-0.693,0.393-0.89c0.17-0.131,0.445-0.131,0.654-0.131c0.144,0,0.353-0.014,0.353-0.21
	c0-0.183-0.301-0.117-0.405-0.117h-1.622c-0.288,0.039-0.379,0.288-0.523,0.497L6.543,21.333z"/>
<path fill-rule="evenodd" clip-rule="evenodd" fill="#B4162C" d="M13.606,20.365c0.301-1.229,1.282-3.061,2.734-3.061
	c0.484,0,0.772,0.261,0.772,0.745c0,0.432-0.183,0.877-0.445,1.217C16.065,20.051,14.561,20.287,13.606,20.365z M13.553,20.626
	l0.17-0.026c1.387-0.209,4.304-0.405,4.304-2.302c0-0.824-0.785-1.243-1.517-1.243c-2.028,0-4.003,2.08-4.003,4.095
	c0,1.125,0.706,2.054,1.883,2.054c0.956,0,1.845-0.575,2.473-1.27c0.065-0.078,0.34-0.392,0.34-0.51
	c0-0.065-0.026-0.092-0.092-0.092s-0.104,0.053-0.144,0.105c-0.432,0.614-1.295,1.19-2.054,1.19c-0.929,0-1.387-0.642-1.387-1.505
	v-0.301L13.553,20.626z"/>
<path fill-rule="evenodd" clip-rule="evenodd" fill="#B4162C" d="M23.678,17.932c0,0.602-0.968,2.054-1.321,2.537
	c-0.484,0.642-1.609,2.094-2.512,2.094c-0.484,0-0.602-0.458-0.602-0.864c0-0.941,0.589-2.119,1.151-2.852
	c0.549-0.693,1.583-1.557,2.512-1.557C23.286,17.291,23.678,17.513,23.678,17.932z M23.849,17.487
	c-0.17-0.313-0.484-0.432-0.837-0.432c-1.125,0-2.329,0.628-3.14,1.399c-0.837,0.799-1.609,2.067-1.609,3.258
	c0,0.693,0.314,1.491,1.125,1.491c1.491,0,2.957-2.289,3.741-3.375l-0.523,1.714c-0.105,0.34-0.236,0.798-0.236,1.151
	c0,0.301,0.079,0.51,0.406,0.51c0.549,0,1.295-0.759,1.609-1.138c0.131-0.157,0.537-0.693,0.537-0.929
	c0-0.04-0.013-0.092-0.066-0.092c-0.091,0-0.144,0.104-0.196,0.17c-0.157,0.274-0.824,1.19-1.138,1.19
	c-0.131,0-0.183-0.118-0.183-0.223c0-0.183,0.078-0.366,0.131-0.523l2.237-7.299c0.013-0.053,0.079-0.249,0.079-0.314
	s-0.04-0.117-0.105-0.117c-0.039,0-0.091,0.039-0.118,0.052c-0.432,0.327-0.981,0.472-1.504,0.497c-0.131,0-0.393-0.013-0.393,0.17
	c0,0.092,0.066,0.145,0.157,0.145l0.209-0.014c0.222-0.013,0.51,0.026,0.51,0.327c0,0.118-0.104,0.432-0.13,0.537L23.849,17.487z"/>
<path fill-rule="evenodd" clip-rule="evenodd" fill="#B4162C" d="M29.277,15.355c0-0.249-0.17-0.458-0.432-0.458
	c-0.379,0-0.667,0.497-0.667,0.837c0,0.249,0.131,0.484,0.405,0.484C28.989,16.218,29.277,15.721,29.277,15.355z M26.53,21.529
	c-0.092,0.314-0.235,0.812-0.235,1.151c0,0.301,0.065,0.523,0.405,0.523c0.55,0,1.282-0.759,1.596-1.151
	c0.131-0.17,0.549-0.706,0.549-0.929c0-0.053-0.013-0.092-0.079-0.092c-0.091,0-0.144,0.092-0.183,0.17
	c-0.157,0.262-0.824,1.19-1.151,1.19c-0.118,0-0.17-0.104-0.17-0.235c0-0.17,0.065-0.353,0.118-0.523l0.968-3.139
	c0.079-0.235,0.222-0.707,0.222-0.955c0-0.288-0.091-0.484-0.405-0.484c-0.497,0-1.217,0.642-1.543,0.955
	c-0.105,0.104-0.641,0.681-0.641,0.851c0,0.065,0.026,0.104,0.079,0.104c0.17,0,0.902-1.151,1.347-1.151
	c0.131,0,0.157,0.131,0.157,0.235c0,0.118-0.079,0.34-0.105,0.445L26.53,21.529z"/>
<path fill-rule="evenodd" clip-rule="evenodd" fill="#B4162C" d="M35.149,17.722c0-0.549-1.046-0.667-1.426-0.667
	c-0.968,0-2.067,0.615-2.747,1.282c-0.707,0.693-1.256,1.688-1.256,2.694c0,1.178,0.811,2.172,2.028,2.172
	c0.916,0,1.713-0.575,2.328-1.203c0.118-0.118,0.55-0.589,0.55-0.785c0-0.039-0.04-0.078-0.079-0.078
	c-0.223,0-1.021,1.412-2.485,1.412c-0.916,0-1.334-0.706-1.334-1.557c0-0.929,0.51-2.08,1.125-2.76
	c0.34-0.366,0.968-0.89,1.504-0.89c0.602,0,0.484,0.771,1.308,0.771C34.9,18.115,35.149,17.984,35.149,17.722z"/>
<path fill-rule="evenodd" clip-rule="evenodd" fill="#B4162C" d="M39.217,15.355c0-0.249-0.17-0.458-0.432-0.458
	c-0.379,0-0.667,0.497-0.667,0.837c0,0.249,0.131,0.484,0.406,0.484C38.929,16.218,39.217,15.721,39.217,15.355z M36.47,21.529
	c-0.092,0.314-0.235,0.812-0.235,1.151c0,0.301,0.065,0.523,0.405,0.523c0.549,0,1.282-0.759,1.596-1.151
	c0.13-0.17,0.549-0.706,0.549-0.929c0-0.053-0.013-0.092-0.079-0.092c-0.092,0-0.144,0.092-0.183,0.17
	c-0.157,0.262-0.824,1.19-1.151,1.19c-0.118,0-0.17-0.104-0.17-0.235c0-0.17,0.065-0.353,0.118-0.523l0.968-3.139
	c0.078-0.235,0.222-0.707,0.222-0.955c0-0.288-0.092-0.484-0.406-0.484c-0.497,0-1.216,0.642-1.543,0.955
	c-0.104,0.104-0.641,0.681-0.641,0.851c0,0.065,0.026,0.104,0.078,0.104c0.17,0,0.903-1.151,1.348-1.151
	c0.13,0,0.157,0.131,0.157,0.235c0,0.118-0.079,0.34-0.104,0.445L36.47,21.529z"/>
<path fill-rule="evenodd" clip-rule="evenodd" fill="#B4162C" d="M46.2,18.743c0.104-0.274,0.249-0.654,0.249-0.955
	c0-0.471-0.366-0.732-0.811-0.732c-1.688,0-3.218,2.303-3.938,3.61l-0.026-0.026l0.562-1.792c0.105-0.353,0.223-0.771,0.223-1.15
	c0-0.38-0.131-0.642-0.537-0.642c-0.549,0-1.229,0.654-1.556,1.047c-0.105,0.104-0.562,0.706-0.562,0.85
	c0,0.065,0.052,0.092,0.104,0.092c0.079,0,0.118-0.078,0.144-0.144c0.157-0.274,0.876-1.151,1.216-1.151
	c0.196,0,0.262,0.144,0.262,0.314c0,0.222-0.092,0.51-0.157,0.719l-1.164,3.807c-0.026,0.065-0.079,0.235-0.079,0.302
	c0,0.222,0.275,0.156,0.406,0.156c0.418,0,0.418-0.065,0.536-0.444c0.314-1.021,1.321-2.761,2.015-3.585
	c0.406-0.471,1.229-1.438,1.923-1.438c0.301,0,0.458,0.17,0.458,0.458c0,0.235-0.105,0.484-0.183,0.706l-0.929,2.473
	c-0.157,0.405-0.354,0.955-0.354,1.399c0,0.38,0.17,0.589,0.562,0.589c0.537,0,1.321-0.759,1.662-1.138
	c0.104-0.105,0.588-0.707,0.588-0.877c0-0.052-0.052-0.092-0.091-0.092c-0.079,0-0.131,0.079-0.157,0.131
	c-0.222,0.327-0.955,1.243-1.374,1.243c-0.157,0-0.249-0.092-0.249-0.262c0-0.184,0.131-0.497,0.196-0.667L46.2,18.743z"/>
<path fill-rule="evenodd" clip-rule="evenodd" fill="#B4162C" d="M49.628,20.718c0.353,0.313,0.719,0.68,0.719,1.19
	c0,0.575-0.628,1.007-1.164,1.007c-1.165,0-1.4-1.412-1.753-1.412c-0.183,0-0.235,0.366-0.261,0.471
	c-0.026,0.092-0.118,0.313-0.118,0.418c0,0.157,0.183,0.288,0.301,0.366c0.418,0.275,1.007,0.445,1.504,0.445
	c0.536,0,1.112-0.17,1.557-0.484c0.366-0.274,0.759-0.798,0.759-1.281c0-1.348-2.159-2.172-2.159-3.219
	c0-0.522,0.418-0.876,0.929-0.876c0.55,0,0.903,0.354,1.269,0.72c0.079,0.078,0.288,0.301,0.406,0.301
	c0.17,0,0.196-0.275,0.235-0.38c0.026-0.104,0.091-0.274,0.091-0.379c0-0.458-1.321-0.55-1.583-0.55
	c-1.034,0-2.106,0.642-2.106,1.779c0,0.589,0.537,1.112,0.942,1.491L49.628,20.718z"/>
<path fill-rule="evenodd" clip-rule="evenodd" fill="#B4162C" d="M53.957,20.483c0.471-0.89,1.871-2.892,2.97-2.892
	c0.353,0,0.576,0.262,0.576,0.602c0,0.629-0.484,1.191-0.968,1.558c-0.628,0.471-1.478,0.732-2.263,0.732H53.957z M53.839,20.718
	c0.405-0.079,0.602,0.34,0.732,0.641c0.379,0.863,0.772,1.845,1.871,1.845c0.693,0,1.334-0.458,1.334-1.178
	c0-0.366-0.196-0.719-0.602-0.719c-0.196,0-0.327,0.17-0.327,0.353c0,0.471,0.562,0.274,0.562,0.72c0,0.301-0.288,0.497-0.562,0.497
	c-0.576,0-0.876-0.759-1.085-1.19c-0.196-0.419-0.406-0.876-0.864-1.047c0.772-0.117,1.609-0.235,2.29-0.641
	c0.641-0.379,1.229-1.007,1.229-1.792c0-0.615-0.471-1.151-1.099-1.151c-1.282,0-2.812,1.962-3.388,3.009l1.727-5.651
	c0.026-0.065,0.105-0.313,0.105-0.393c0-0.052-0.04-0.091-0.092-0.091c-0.04,0-0.104,0.025-0.144,0.039
	c-0.51,0.301-0.916,0.327-1.491,0.327c-0.104,0-0.301-0.014-0.301,0.131c0,0.144,0.131,0.131,0.235,0.131
	c0.235,0.013,0.576,0.039,0.576,0.353c0,0.184-0.118,0.55-0.17,0.733l-2.12,6.959c-0.026,0.078-0.078,0.235-0.078,0.313
	c0,0.184,0.34,0.131,0.432,0.131c0.51,0,0.405-0.117,0.588-0.602L53.839,20.718z"/>
<path fill-rule="evenodd" clip-rule="evenodd" fill="#B4162C" d="M64.068,17.984c0,0.602-1.073,2.093-1.439,2.551
	c-0.458,0.576-1.622,1.976-2.42,1.976c-0.419,0-0.602-0.432-0.602-0.798c0-0.824,0.693-2.146,1.19-2.773
	c0.55-0.72,1.479-1.635,2.433-1.635C63.675,17.304,64.068,17.501,64.068,17.984z M64.264,17.513
	c-0.275-0.354-0.562-0.458-1.007-0.458c-1.19,0-2.368,0.746-3.166,1.583c-0.746,0.785-1.504,2.106-1.504,3.218
	c0,0.641,0.301,1.348,1.033,1.348c1.543,0,3.296-2.499,4.029-3.702l-0.798,2.59c-0.065,0.223-0.144,0.484-0.144,0.732
	c0,0.223,0.118,0.38,0.353,0.38c0.523,0,1.229-0.615,1.557-0.968c0.157-0.17,0.693-0.851,0.693-1.086
	c0-0.053-0.039-0.104-0.092-0.104c-0.091,0-0.183,0.17-0.222,0.235c-0.157,0.248-0.771,1.072-1.099,1.072
	c-0.105,0-0.131-0.092-0.131-0.196c0-0.117,0.079-0.327,0.104-0.432l1.347-4.421c0.013-0.053,0.065-0.196,0.065-0.262
	c0-0.184-0.366-0.118-0.444-0.118c-0.432,0-0.406,0.065-0.537,0.471L64.264,17.513z"/>
<path fill-rule="evenodd" clip-rule="evenodd" d="M71.183,18.18c0-0.471-0.026-0.471,0.458-0.471h0.916
	c0.17,0,0.353,0.052,0.353-0.17c0-0.157,0-0.235-0.183-0.235h-1.033c-0.55,0-0.51-0.026-0.51-0.589v-0.654
	c0-0.641,0.118-1.805,0.994-1.805c0.379,0,0.641,0.301,0.876,0.562c0.079,0.091,0.249,0.287,0.379,0.287
	c0.17,0,0.366-0.614,0.366-0.745c0-0.366-0.903-0.484-1.138-0.484c-0.667,0-1.399,0.405-1.844,0.877
	c-0.432,0.471-0.51,1.138-0.562,1.753c-0.026,0.405,0.026,0.771-0.432,0.889c-0.105,0.026-0.314,0.065-0.314,0.21
	c0,0.17,0.288,0.104,0.393,0.104c0.405,0,0.379,0.078,0.379,0.471v3.532c0,0.562,0.105,1.007-0.602,1.072
	c-0.131,0.014-0.353-0.013-0.353,0.184c0,0.104,0.078,0.131,0.17,0.131c0.393,0,0.811-0.053,1.204-0.053
	c0.418,0,0.837,0.053,1.282,0.053c0.092,0,0.157-0.026,0.157-0.145c0-0.17-0.235-0.156-0.367-0.17
	c-0.706-0.065-0.588-0.51-0.588-1.072V18.18z"/>
<path fill-rule="evenodd" clip-rule="evenodd" d="M76.741,19.999c0.039-0.013,0.104-0.052,0.144-0.052
	c0.131,0,0.092,0.313,0.092,0.366v0.784c0,0.432-0.013,0.654-0.327,0.981c-0.314,0.313-0.759,0.523-1.217,0.523
	c-0.484,0-0.902-0.262-0.902-0.772c0-0.628,0.51-0.968,1.02-1.229L76.741,19.999z M75.485,20.338
	c-0.732,0.341-1.937,0.903-1.937,1.832c0,0.653,0.615,1.033,1.23,1.033c1.138,0,1.988-0.994,2.106-0.994
	c0.183,0,0.249,0.915,0.89,0.915c0.34,0,0.667-0.195,0.929-0.379c0.092-0.078,0.314-0.262,0.314-0.405
	c0-0.053-0.039-0.104-0.091-0.104c-0.118,0-0.262,0.327-0.589,0.327c-0.471,0-0.458-0.759-0.458-1.047v-3.087
	c0-0.354,0.053-0.681-0.262-0.955c-0.301-0.262-0.785-0.34-1.19-0.34c-0.837,0-1.727,0.353-2.341,0.902
	c-0.249,0.209-0.549,0.589-0.549,0.929c0,0.131,0.065,0.157,0.17,0.157c0.157,0,0.432-0.105,0.562-0.171
	c0.209-0.091,0.275-0.274,0.366-0.471c0.301-0.667,0.707-1.099,1.504-1.099c0.811,0,0.837,0.536,0.837,1.178v0.575
	c0,0.497-0.013,0.51-0.484,0.732L75.485,20.338z"/>
<path fill-rule="evenodd" clip-rule="evenodd" d="M81.489,20.966c0-0.497,0.013-0.458,0.406-0.759
	c0.065-0.052,0.196-0.183,0.301-0.183c0.131,0,0.314,0.274,0.379,0.366l1.216,1.596c0.092,0.118,0.314,0.393,0.314,0.55
	c0,0.274-0.314,0.248-0.51,0.248c-0.105,0-0.223,0.079-0.223,0.21c0,0.117,0.118,0.104,0.209,0.104c0.405,0,0.824-0.053,1.216-0.053
	c0.418,0,0.863,0.053,1.282,0.053c0.091,0,0.209,0.013,0.209-0.118c0-0.144-0.157-0.196-0.274-0.196
	c-0.484,0-0.667-0.313-0.955-0.667l-1.975-2.512c-0.052-0.052-0.092-0.092-0.092-0.17c0-0.118,0.249-0.288,0.327-0.354l0.994-0.784
	c0.51-0.393,0.837-0.707,1.504-0.733c0.118,0,0.262-0.013,0.262-0.156c0-0.131-0.118-0.104-0.223-0.104h-2.302
	c-0.104,0-0.288-0.026-0.288,0.117c0,0.223,0.353,0.17,0.497,0.184c0.144,0,0.418,0,0.418,0.209c0,0.196-0.393,0.497-0.536,0.615
	l-1.937,1.53c-0.026,0.026-0.104,0.092-0.144,0.092c-0.079,0-0.079-0.21-0.079-0.275v-5.69c0-0.104,0.013-0.209-0.118-0.209
	c-0.091,0-0.209,0.092-0.275,0.144c-0.314,0.21-0.811,0.341-1.177,0.406c-0.078,0.013-0.183,0.052-0.183,0.144
	c0,0.17,0.223,0.131,0.34,0.131c0.628,0,0.51,0.575,0.51,1.06v5.952c0,0.562,0.118,1.007-0.589,1.072
	c-0.144,0.014-0.366-0.013-0.366,0.184c0,0.104,0.091,0.131,0.183,0.131c0.405,0,0.824-0.053,1.243-0.053
	c0.393,0,0.811,0.053,1.229,0.053c0.092,0,0.157-0.039,0.157-0.145c0-0.17-0.235-0.156-0.366-0.17
	c-0.707-0.065-0.589-0.51-0.589-1.072V20.966z"/>
<path fill-rule="evenodd" clip-rule="evenodd" d="M92.475,17.63c0-0.144,0.065-0.326-0.144-0.326h-1.517
	c-0.105,0-0.183-0.026-0.183,0.091c0,0.17,0.249,0.17,0.366,0.17c0.707,0,0.575,0.498,0.575,1.047v2.499
	c0,0.366,0.052,0.667-0.222,0.968c-0.366,0.405-0.837,0.589-1.399,0.589c-0.484,0-1.047-0.171-1.309-0.602
	c-0.235-0.38-0.235-1.034-0.235-1.466v-2.825c0-0.196,0.065-0.471-0.209-0.471h-1.465c-0.104,0-0.17-0.026-0.17,0.078
	c0,0.183,0.235,0.183,0.353,0.183c0.72,0,0.588,0.498,0.588,1.047V20.6c0,0.642-0.026,1.309,0.393,1.845
	c0.379,0.497,0.903,0.759,1.544,0.759c1.19,0,1.805-0.916,2.001-0.916c0.17,0,0.104,0.471,0.104,0.536v0.314
	c0,0.065,0,0.104,0.065,0.104c0.039,0,0.118-0.065,0.144-0.078c0.379-0.288,0.85-0.432,1.308-0.562
	c0.079-0.026,0.275-0.053,0.275-0.17c0-0.092-0.091-0.104-0.17-0.104l-0.17,0.013c-0.628,0.052-0.523-0.354-0.523-0.863V17.63z"/>
<path fill-rule="evenodd" clip-rule="evenodd" d="M95.886,14.085c0-0.104,0.013-0.209-0.118-0.209c-0.092,0-0.209,0.092-0.275,0.144
	c-0.314,0.21-0.811,0.341-1.177,0.406c-0.079,0.013-0.183,0.052-0.183,0.144c0,0.17,0.222,0.131,0.34,0.131
	c0.628,0,0.51,0.575,0.51,1.06v5.952c0,0.562,0.118,1.007-0.588,1.072c-0.144,0.014-0.366-0.013-0.366,0.184
	c0,0.104,0.091,0.131,0.183,0.131c0.405,0,0.824-0.053,1.243-0.053c0.392,0,0.811,0.053,1.229,0.053
	c0.092,0,0.157-0.039,0.157-0.145c0-0.17-0.236-0.156-0.366-0.17c-0.707-0.065-0.589-0.51-0.589-1.072V14.085z"/>
<path fill-rule="evenodd" clip-rule="evenodd" d="M98.945,17.867c0-0.366,0.183-0.288,0.484-0.288h0.732
	c0.301,0,0.405,0.065,0.405-0.209c0-0.105,0-0.184-0.117-0.184h-1.295c-0.183,0-0.209-0.092-0.209-0.262v-0.929
	c0-0.078-0.013-0.157-0.104-0.157c-0.065,0-0.104,0.065-0.131,0.118c-0.301,0.628-0.68,0.955-1.243,1.321
	c-0.065,0.052-0.157,0.104-0.157,0.196c0,0.156,0.34,0.104,0.405,0.104c0.249,0,0.327-0.039,0.327,0.235v3.362
	c0,0.522-0.052,1.19,0.288,1.622c0.223,0.274,0.589,0.405,0.942,0.405c0.458,0,0.89-0.196,1.217-0.497
	c0.091-0.065,0.262-0.235,0.262-0.366c0-0.039-0.04-0.092-0.092-0.092c-0.104,0-0.458,0.458-0.942,0.458
	c-0.785,0-0.772-0.968-0.772-1.53V17.867z"/>
<path fill-rule="evenodd" clip-rule="evenodd" d="M102.775,19.174c-0.144,0-0.445,0.039-0.445-0.17s0.223-0.615,0.327-0.759
	c0.406-0.549,1.033-0.876,1.701-0.876c0.418,0,0.85,0.104,1.138,0.405c0.184,0.196,0.34,0.497,0.34,0.771
	c0,0.314-0.196,0.458-0.484,0.523c-0.379,0.092-1.112,0.104-1.518,0.104H102.775z M106.726,19.489c0.131,0,0.157-0.118,0.157-0.223
	c0-0.432-0.196-0.994-0.458-1.321c-0.458-0.562-1.178-0.811-1.884-0.811c-0.89,0-1.701,0.301-2.354,0.876
	c-0.694,0.602-0.942,1.295-0.942,2.185c0,1.635,1.269,3.009,2.982,3.009c0.811,0,1.452-0.209,2.067-0.732
	c0.091-0.079,0.51-0.432,0.51-0.589c0-0.053-0.04-0.104-0.105-0.104c-0.17,0-0.654,0.851-1.936,0.851
	c-1.583,0-2.538-1.27-2.538-2.734c0-0.432,0.131-0.405,0.536-0.405H106.726z"/>
<path fill-rule="evenodd" clip-rule="evenodd" d="M109.147,17.867c0-0.366,0.183-0.288,0.484-0.288h0.732
	c0.301,0,0.406,0.065,0.406-0.209c0-0.105,0-0.184-0.118-0.184h-1.295c-0.184,0-0.209-0.092-0.209-0.262v-0.929
	c0-0.078-0.013-0.157-0.104-0.157c-0.066,0-0.105,0.065-0.131,0.118c-0.301,0.628-0.68,0.955-1.243,1.321
	c-0.065,0.052-0.157,0.104-0.157,0.196c0,0.156,0.34,0.104,0.406,0.104c0.249,0,0.327-0.039,0.327,0.235v3.362
	c0,0.522-0.052,1.19,0.288,1.622c0.222,0.274,0.588,0.405,0.941,0.405c0.458,0,0.89-0.196,1.217-0.497
	c0.092-0.065,0.262-0.235,0.262-0.366c0-0.039-0.04-0.092-0.092-0.092c-0.104,0-0.458,0.458-0.941,0.458
	c-0.785,0-0.772-0.968-0.772-1.53V17.867z"/>
<path fill-rule="evenodd" clip-rule="evenodd" d="M114.664,19.999c0.04-0.013,0.105-0.052,0.144-0.052
	c0.131,0,0.092,0.313,0.092,0.366v0.784c0,0.432-0.013,0.654-0.327,0.981c-0.314,0.313-0.759,0.523-1.217,0.523
	c-0.484,0-0.902-0.262-0.902-0.772c0-0.628,0.51-0.968,1.02-1.229L114.664,19.999z M113.409,20.338
	c-0.733,0.341-1.937,0.903-1.937,1.832c0,0.653,0.615,1.033,1.23,1.033c1.138,0,1.988-0.994,2.106-0.994
	c0.183,0,0.249,0.915,0.89,0.915c0.34,0,0.667-0.195,0.929-0.379c0.091-0.078,0.314-0.262,0.314-0.405
	c0-0.053-0.039-0.104-0.091-0.104c-0.118,0-0.262,0.327-0.589,0.327c-0.471,0-0.458-0.759-0.458-1.047v-3.087
	c0-0.354,0.052-0.681-0.262-0.955c-0.301-0.262-0.785-0.34-1.19-0.34c-0.837,0-1.727,0.353-2.341,0.902
	c-0.249,0.209-0.549,0.589-0.549,0.929c0,0.131,0.065,0.157,0.17,0.157c0.157,0,0.432-0.105,0.562-0.171
	c0.209-0.091,0.275-0.274,0.366-0.471c0.301-0.667,0.707-1.099,1.504-1.099c0.811,0,0.837,0.536,0.837,1.178v0.575
	c0,0.497-0.013,0.51-0.484,0.732L113.409,20.338z"/>
<path fill-rule="evenodd" clip-rule="evenodd" d="M10.938,7.349c0,0.654,0.013,1.242-0.471,1.739
	C9.931,9.626,9.094,9.795,8.348,9.795c-0.719,0-1.713-0.184-2.119-0.851C5.928,8.46,5.954,7.506,5.954,6.93V3.242
	c0-0.824-0.065-1.073,0.851-1.073c0.118,0,0.34,0,0.34-0.17c0-0.144-0.104-0.183-0.222-0.183c-0.497,0-0.994,0.052-1.491,0.052
	S4.463,1.816,3.966,1.816c-0.131,0-0.222,0.039-0.222,0.183c0,0.17,0.209,0.17,0.327,0.17c0.916,0,0.85,0.249,0.85,1.073v4.107
	c0,0.863-0.013,1.609,0.771,2.171c0.654,0.458,1.662,0.603,2.434,0.603c0.863,0,1.805-0.131,2.459-0.693
	c0.707-0.615,0.72-1.243,0.72-2.08V3.268c0-0.603-0.065-1.1,0.68-1.1c0.118,0,0.418,0,0.418-0.183c0-0.157-0.17-0.17-0.274-0.17
	c-0.34,0-0.681,0.052-1.021,0.052c-0.393,0-0.785-0.052-1.177-0.052c-0.131,0-0.275,0.039-0.275,0.183
	c0,0.184,0.235,0.17,0.353,0.17c0.301,0,0.628,0.014,0.785,0.301c0.157,0.262,0.144,0.981,0.144,1.296V7.349z"/>
<path fill-rule="evenodd" clip-rule="evenodd" d="M13.266,8.63c0,0.562,0.118,1.008-0.588,1.073
	c-0.144,0.013-0.366-0.013-0.366,0.184c0,0.104,0.091,0.13,0.183,0.13c0.406,0,0.824-0.052,1.243-0.052
	c0.392,0,0.811,0.052,1.229,0.052c0.091,0,0.157-0.039,0.157-0.144c0-0.17-0.235-0.157-0.366-0.17
	c-0.706-0.065-0.588-0.511-0.588-1.073V6.433c0-0.523,0.039-0.811,0.418-1.203c0.34-0.354,0.798-0.562,1.295-0.562
	c0.51,0,0.981,0.209,1.23,0.589c0.235,0.353,0.235,0.876,0.235,1.295V8.63c0,0.562,0.118,1.008-0.589,1.073
	c-0.144,0.013-0.366-0.013-0.366,0.184c0,0.104,0.092,0.13,0.183,0.13c0.406,0,0.824-0.052,1.243-0.052
	c0.393,0,0.812,0.052,1.23,0.052c0.091,0,0.157-0.039,0.157-0.144c0-0.17-0.235-0.157-0.366-0.17
	C18.132,9.638,18.25,9.193,18.25,8.63V6.564c0-0.628,0.026-1.269-0.392-1.805c-0.366-0.472-0.89-0.707-1.543-0.707
	c-1.191,0-1.923,1.073-2.146,1.073V4.261c0-0.091,0.013-0.209-0.118-0.209c-0.105,0-0.17,0.104-0.236,0.17
	c-0.209,0.249-0.771,0.589-1.085,0.681c-0.118,0.039-0.301,0.065-0.301,0.223c0,0.078,0.078,0.104,0.157,0.104h0.17
	c0.105,0,0.301,0.013,0.38,0.104c0.144,0.144,0.13,0.654,0.13,0.837V8.63z"/>
<path fill-rule="evenodd" clip-rule="evenodd" d="M21.269,2.915c0.379,0,0.576-0.301,0.576-0.654c0-0.314-0.209-0.628-0.549-0.628
	c-0.353,0-0.589,0.313-0.589,0.654C20.706,2.626,20.916,2.915,21.269,2.915z M21.727,4.261c0-0.091,0.013-0.209-0.118-0.209
	c-0.104,0-0.17,0.104-0.235,0.17c-0.209,0.249-0.772,0.589-1.086,0.681c-0.118,0.039-0.301,0.065-0.301,0.223
	c0,0.078,0.079,0.104,0.157,0.104h0.17c0.104,0,0.301,0.013,0.379,0.104c0.144,0.144,0.131,0.654,0.131,0.837V8.63
	c0,0.562,0.118,1.008-0.589,1.073c-0.144,0.013-0.366-0.013-0.366,0.184c0,0.104,0.092,0.13,0.183,0.13
	c0.405,0,0.824-0.052,1.243-0.052c0.393,0,0.811,0.052,1.229,0.052c0.092,0,0.157-0.039,0.157-0.144c0-0.17-0.235-0.157-0.366-0.17
	c-0.707-0.065-0.589-0.511-0.589-1.073V4.261z"/>
<path fill-rule="evenodd" clip-rule="evenodd" d="M26.185,8.775l-1.334-3.271c-0.065-0.157-0.209-0.484-0.209-0.654
	c0-0.248,0.249-0.366,0.484-0.366c0.091,0,0.366,0.039,0.366-0.117c0-0.157-0.131-0.145-0.249-0.145h-2.368
	c-0.104,0-0.196-0.013-0.196,0.118c0,0.144,0.144,0.144,0.249,0.144c0.549,0.026,0.615,0.275,0.811,0.759l1.896,4.579l0.079,0.17
	c0.013,0.052,0.052,0.131,0.118,0.131c0.105,0,0.196-0.262,0.223-0.301l1.87-4.056c0.223-0.484,0.458-1.203,1.073-1.282
	c0.105-0.013,0.327-0.013,0.327-0.17c0-0.117-0.065-0.092-0.17-0.092h-1.923c-0.104,0-0.196,0-0.196,0.118
	c0,0.144,0.235,0.144,0.353,0.144c0.235,0,0.51,0.092,0.51,0.354c0,0.157-0.104,0.419-0.17,0.562L26.185,8.775z"/>
<path fill-rule="evenodd" clip-rule="evenodd" d="M30.346,6.093c-0.144,0-0.445,0.039-0.445-0.17c0-0.21,0.222-0.615,0.327-0.759
	c0.405-0.55,1.033-0.877,1.7-0.877c0.419,0,0.851,0.105,1.138,0.406c0.183,0.196,0.34,0.497,0.34,0.771
	c0,0.313-0.196,0.458-0.484,0.523c-0.379,0.092-1.112,0.104-1.518,0.104H30.346z M34.297,6.407c0.13,0,0.157-0.117,0.157-0.222
	c0-0.432-0.196-0.994-0.458-1.321c-0.458-0.562-1.177-0.812-1.884-0.812c-0.889,0-1.7,0.301-2.354,0.877
	c-0.693,0.602-0.942,1.295-0.942,2.185c0,1.635,1.269,3.009,2.982,3.009c0.812,0,1.452-0.21,2.067-0.733
	c0.092-0.078,0.51-0.431,0.51-0.588c0-0.053-0.039-0.104-0.104-0.104c-0.17,0-0.654,0.85-1.936,0.85
	c-1.583,0-2.538-1.269-2.538-2.733c0-0.432,0.131-0.406,0.537-0.406H34.297z"/>
<path fill-rule="evenodd" clip-rule="evenodd" d="M35.762,8.63c0,0.562,0.118,1.008-0.589,1.073
	c-0.144,0.013-0.366-0.013-0.366,0.184c0,0.104,0.092,0.13,0.183,0.13c0.406,0,0.824-0.052,1.243-0.052
	c0.393,0,0.811,0.052,1.23,0.052c0.091,0,0.157-0.039,0.157-0.144c0-0.17-0.235-0.157-0.366-0.17
	c-0.707-0.065-0.589-0.511-0.589-1.073V6.564c0-0.523-0.026-0.863,0.301-1.308c0.144-0.196,0.379-0.472,0.667-0.472
	c0.366,0,0.393,0.497,0.837,0.497c0.314,0,0.549-0.196,0.549-0.522c0-0.393-0.353-0.628-0.745-0.628
	c-0.903,0-1.413,1.046-1.544,1.046c-0.091,0-0.065-0.222-0.065-0.274V4.261c0-0.091,0.013-0.209-0.118-0.209
	c-0.104,0-0.17,0.104-0.235,0.17c-0.209,0.249-0.772,0.589-1.086,0.681c-0.118,0.039-0.301,0.065-0.301,0.223
	c0,0.078,0.079,0.104,0.157,0.104h0.17c0.104,0,0.301,0.013,0.379,0.104c0.144,0.144,0.131,0.654,0.131,0.837V8.63z"/>
<path fill-rule="evenodd" clip-rule="evenodd" d="M44.342,4.694c0.052-0.065,0.209-0.275,0.209-0.38
	c0-0.117-0.157-0.092-0.236-0.092h-3.192c-0.327,0-0.667,0.026-0.667-0.379c0-0.092-0.013-0.209-0.131-0.209
	c-0.131,0-0.209,0.287-0.235,0.366l-0.34,0.994c-0.013,0.039-0.091,0.248-0.091,0.301c0,0.065,0.052,0.104,0.118,0.104
	c0.105,0,0.17-0.131,0.222-0.209c0.144-0.21,0.419-0.432,0.654-0.537c0.314-0.144,0.72-0.104,1.046-0.104h1.308
	c0.065,0,0.223,0,0.223,0.092c0,0.078-0.118,0.235-0.157,0.288l-3.479,4.604c-0.026,0.052-0.183,0.222-0.183,0.301
	c0,0.196,0.366,0.131,0.471,0.131h4.447c0.262,0.026,0.196-0.301,0.196-0.458l0.026-0.641c0-0.092,0.065-0.497-0.118-0.497
	c-0.13,0-0.157,0.17-0.183,0.261c-0.131,0.341-0.262,0.654-0.589,0.838c-0.34,0.183-0.916,0.196-1.308,0.196h-1.138
	c-0.052,0-0.458,0.026-0.458-0.104c0-0.092,0.157-0.275,0.209-0.327L44.342,4.694z"/>
<path fill-rule="evenodd" clip-rule="evenodd" d="M48.515,6.918c0.04-0.014,0.105-0.053,0.144-0.053
	c0.131,0,0.092,0.314,0.092,0.366v0.785c0,0.432-0.013,0.654-0.327,0.981C48.11,9.311,47.665,9.52,47.207,9.52
	c-0.484,0-0.902-0.261-0.902-0.771c0-0.628,0.51-0.968,1.02-1.229L48.515,6.918z M47.26,7.257c-0.733,0.34-1.937,0.902-1.937,1.831
	c0,0.654,0.615,1.034,1.23,1.034c1.138,0,1.988-0.994,2.106-0.994c0.183,0,0.249,0.915,0.89,0.915c0.34,0,0.667-0.196,0.929-0.379
	c0.091-0.079,0.314-0.262,0.314-0.405c0-0.053-0.039-0.105-0.091-0.105c-0.118,0-0.262,0.327-0.589,0.327
	c-0.471,0-0.458-0.759-0.458-1.046V5.347c0-0.353,0.052-0.68-0.262-0.954c-0.301-0.262-0.785-0.341-1.19-0.341
	c-0.837,0-1.727,0.354-2.341,0.903c-0.249,0.209-0.549,0.588-0.549,0.929c0,0.13,0.065,0.156,0.17,0.156
	c0.157,0,0.432-0.104,0.562-0.17c0.209-0.092,0.275-0.274,0.366-0.471c0.301-0.667,0.707-1.099,1.504-1.099
	c0.811,0,0.837,0.536,0.837,1.177v0.576c0,0.497-0.013,0.51-0.484,0.732L47.26,7.257z"/>
<path fill-rule="evenodd" clip-rule="evenodd" d="M58.371,5.386c0.118-0.301,0.249-0.614,0.249-0.941
	c0-0.301-0.157-0.471-0.458-0.471c-0.34,0-0.759,0.274-1.021,0.471c-0.418,0.314-0.641,0.536-0.942,0.955
	c-0.039,0.065-0.17,0.235-0.17,0.313c0,0.053,0.026,0.105,0.079,0.105c0.065,0,0.131-0.079,0.157-0.118
	c0.17-0.262,0.876-1.086,1.204-1.086c0.118,0,0.183,0.079,0.183,0.196c0,0.145-0.144,0.445-0.196,0.575l-0.942,2.329
	c-0.131,0.327-0.366,0.941-0.366,1.282c0,0.811,0.432,1.125,1.19,1.125c2.146,0,4.343-3.389,4.343-5.338
	c0-0.313-0.13-0.941-0.536-0.941c-0.274,0-0.445,0.34-0.445,0.575c0,0.262,0.118,0.445,0.249,0.642
	c0.118,0.183,0.157,0.313,0.157,0.536c0,1.399-1.884,4.095-3.388,4.095c-0.393,0-0.667-0.302-0.667-0.681
	c0-0.313,0.144-0.693,0.261-0.994L58.371,5.386z"/>
<path fill-rule="evenodd" clip-rule="evenodd" d="M70.785,8.566c0.026-0.092,0.078-0.249,0.078-0.354
	c0-0.078-0.052-0.118-0.131-0.118c-0.144,0-0.222,0.235-0.274,0.341c-0.641,1.308-1.583,1.203-2.852,1.203
	c-0.222,0-0.536,0.053-0.536-0.262c0-0.117,0.065-0.327,0.104-0.444l1.779-5.796c0.196-0.628,0.275-1.007,1.151-0.994
	c0.13,0,0.392,0.026,0.392-0.17c0-0.144-0.131-0.156-0.249-0.156c-0.51,0.013-1.033,0.052-1.543,0.052
	c-0.406,0-0.811-0.039-1.217-0.052c-0.104,0-0.405-0.065-0.405,0.104c0,0.196,0.183,0.235,0.327,0.222
	c0.275-0.039,0.641-0.052,0.641,0.341c0,0.17-0.104,0.483-0.157,0.641L66.207,8.63c-0.092,0.288-0.196,0.707-0.445,0.89
	c-0.183,0.145-0.471,0.145-0.693,0.145c-0.144,0.013-0.34,0.013-0.34,0.209c0,0.17,0.55,0.092,0.693,0.092h4.461
	c0.458,0,0.471,0,0.602-0.419L70.785,8.566z"/>
<path fill-rule="evenodd" clip-rule="evenodd" d="M74.225,5.4c0.079-0.235,0.222-0.706,0.222-0.942c0-0.287-0.091-0.483-0.405-0.483
	c-0.498,0-1.204,0.641-1.531,0.955c-0.104,0.091-0.654,0.667-0.654,0.837c0,0.065,0.026,0.104,0.091,0.104
	c0.17,0,0.89-1.138,1.347-1.138c0.118,0,0.157,0.131,0.157,0.235S73.362,5.295,73.335,5.4l-1.923,6.292
	c-0.118,0.405-0.262,1.06-0.798,1.06c-0.549,0-0.497-0.811-1.033-0.811c-0.249,0-0.445,0.209-0.445,0.457
	c0,0.497,0.602,0.654,1.007,0.654c0.576,0,1.164-0.287,1.57-0.693c0.523-0.536,0.811-1.347,1.02-2.041L74.225,5.4z M75.154,2.273
	c0-0.248-0.157-0.457-0.419-0.457c-0.379,0-0.667,0.497-0.667,0.824c0,0.262,0.131,0.496,0.406,0.496
	C74.879,3.136,75.154,2.64,75.154,2.273z"/>
<path fill-rule="evenodd" clip-rule="evenodd" d="M80.161,6.629l-0.576,1.857c-0.091,0.314-0.235,0.824-0.235,1.151
	c0,0.223,0.079,0.484,0.354,0.484c0.615,0,1.413-0.654,1.792-1.086c0.104-0.118,0.667-0.824,0.667-1.008
	c0-0.052-0.039-0.091-0.091-0.091c-0.065,0-0.118,0.091-0.157,0.144c-0.209,0.354-0.929,1.295-1.374,1.295
	c-0.144,0-0.209-0.144-0.209-0.262c0-0.156,0.065-0.393,0.117-0.549l1.269-4.147c0.026-0.078,0.079-0.222,0.079-0.313
	c0-0.196-0.34-0.131-0.445-0.131c-0.497,0-0.405,0.065-0.549,0.549c-0.406,1.309-1.046,2.473-1.949,3.506
	c-0.366,0.432-1.452,1.505-2.067,1.505c-0.235,0-0.353-0.145-0.353-0.366c0-0.184,0.092-0.458,0.144-0.628l1.046-3.127
	c0.091-0.262,0.196-0.589,0.196-0.863s-0.092-0.575-0.418-0.575c-0.484,0-1.138,0.563-1.439,0.863
	c-0.131,0.144-0.707,0.851-0.707,1.072c0,0.053,0.013,0.079,0.065,0.079c0.118,0,0.236-0.21,0.288-0.288
	c0.17-0.249,0.759-1.021,1.099-1.021c0.144,0,0.184,0.104,0.184,0.223c0,0.131-0.105,0.393-0.144,0.51l-1.021,2.97
	c-0.104,0.301-0.249,0.746-0.249,1.06c0,0.393,0.144,0.681,0.562,0.681c0.798,0,1.688-0.668,2.25-1.178
	c0.798-0.72,1.177-1.321,1.779-2.185L80.161,6.629z"/>
<path fill-rule="evenodd" clip-rule="evenodd" d="M88.338,5.727c0,1.569-1.622,4.173-3.349,4.173c-0.536,0-0.968-0.262-0.968-0.837
	c0-1.243,2.237-4.487,3.584-4.487C88.207,4.576,88.338,5.256,88.338,5.727z M83.629,7.075c-0.144,0.483-0.34,1.007-0.34,1.53
	c0,1.033,0.746,1.518,1.727,1.518c2.21,0,4.304-2.198,4.304-4.396c0-0.824-0.379-1.753-1.334-1.753
	c-1.269,0-2.852,1.949-3.427,2.982l1.805-5.979c0-0.091-0.039-0.131-0.118-0.131c-0.052,0-0.105,0.026-0.131,0.053
	c-0.458,0.288-0.824,0.327-1.347,0.327c-0.131,0-0.406,0.026-0.406,0.209c0,0.157,0.379,0.131,0.458,0.131
	c0.209,0,0.353,0.053,0.353,0.301c0,0.157-0.104,0.497-0.157,0.654L83.629,7.075z"/>
<path fill-rule="evenodd" clip-rule="evenodd" d="M90.116,8.46c-0.104,0.341-0.235,0.785-0.235,1.151
	c0,0.301,0.065,0.511,0.406,0.511c0.549,0,1.295-0.759,1.596-1.139c0.131-0.157,0.549-0.693,0.549-0.929
	c0-0.052-0.013-0.092-0.065-0.092c-0.105,0-0.157,0.104-0.196,0.171c-0.157,0.274-0.824,1.19-1.138,1.19
	c-0.131,0-0.183-0.118-0.183-0.223c0-0.184,0.079-0.366,0.131-0.523l2.237-7.3c0.013-0.052,0.079-0.248,0.079-0.313
	s-0.04-0.118-0.105-0.118c-0.039,0-0.091,0.04-0.118,0.053c-0.432,0.327-0.981,0.471-1.504,0.497c-0.13,0-0.392-0.014-0.392,0.17
	c0,0.092,0.065,0.144,0.157,0.144l0.209-0.013c0.222-0.013,0.51,0.026,0.51,0.327c0,0.117-0.092,0.419-0.131,0.536L90.116,8.46z"/>
<path fill-rule="evenodd" clip-rule="evenodd" d="M95.884,5.4c0.079-0.235,0.223-0.706,0.223-0.942c0-0.287-0.091-0.483-0.405-0.483
	c-0.498,0-1.204,0.641-1.531,0.955c-0.104,0.091-0.654,0.667-0.654,0.837c0,0.065,0.026,0.104,0.092,0.104
	c0.17,0,0.89-1.138,1.347-1.138c0.118,0,0.157,0.131,0.157,0.235S95.021,5.295,94.995,5.4l-1.923,6.292
	c-0.118,0.405-0.262,1.06-0.798,1.06c-0.549,0-0.497-0.811-1.033-0.811c-0.249,0-0.445,0.209-0.445,0.457
	c0,0.497,0.602,0.654,1.007,0.654c0.576,0,1.164-0.287,1.57-0.693c0.523-0.536,0.811-1.347,1.02-2.041L95.884,5.4z M96.813,2.273
	c0-0.248-0.157-0.457-0.419-0.457c-0.379,0-0.667,0.497-0.667,0.824c0,0.262,0.131,0.496,0.406,0.496
	C96.538,3.136,96.813,2.64,96.813,2.273z"/>
<path fill-rule="evenodd" clip-rule="evenodd" d="M102.031,4.903c0,0.602-1.073,2.093-1.439,2.551
	c-0.458,0.575-1.622,1.976-2.42,1.976c-0.418,0-0.602-0.432-0.602-0.799c0-0.823,0.693-2.145,1.19-2.772
	c0.549-0.72,1.478-1.636,2.433-1.636C101.638,4.222,102.031,4.418,102.031,4.903z M102.226,4.432
	c-0.274-0.354-0.562-0.458-1.007-0.458c-1.19,0-2.368,0.745-3.166,1.583c-0.746,0.784-1.504,2.105-1.504,3.218
	c0,0.641,0.301,1.348,1.033,1.348c1.543,0,3.296-2.499,4.029-3.702l-0.798,2.59c-0.065,0.223-0.144,0.484-0.144,0.732
	c0,0.223,0.118,0.38,0.354,0.38c0.523,0,1.229-0.615,1.557-0.969c0.157-0.17,0.693-0.85,0.693-1.086
	c0-0.052-0.039-0.104-0.092-0.104c-0.091,0-0.183,0.171-0.222,0.236c-0.157,0.248-0.772,1.072-1.099,1.072
	c-0.104,0-0.131-0.092-0.131-0.196c0-0.117,0.079-0.327,0.105-0.432l1.347-4.422c0.013-0.052,0.065-0.196,0.065-0.262
	c0-0.183-0.366-0.117-0.445-0.117c-0.432,0-0.405,0.065-0.536,0.471L102.226,4.432z"/>
<path fill-rule="evenodd" clip-rule="evenodd" d="M110.703,5.662c0.104-0.275,0.249-0.654,0.249-0.955
	c0-0.471-0.366-0.732-0.811-0.732c-1.688,0-3.218,2.302-3.938,3.61l-0.026-0.026l0.562-1.792c0.105-0.354,0.223-0.771,0.223-1.151
	c0-0.379-0.131-0.641-0.537-0.641c-0.549,0-1.229,0.654-1.557,1.046c-0.104,0.105-0.562,0.707-0.562,0.851
	c0,0.065,0.053,0.092,0.105,0.092c0.078,0,0.118-0.078,0.144-0.144c0.157-0.275,0.876-1.151,1.217-1.151
	c0.196,0,0.261,0.144,0.261,0.313c0,0.223-0.091,0.511-0.157,0.72l-1.164,3.807c-0.026,0.065-0.079,0.235-0.079,0.301
	c0,0.223,0.274,0.157,0.406,0.157c0.418,0,0.418-0.065,0.536-0.445c0.314-1.02,1.321-2.76,2.015-3.584
	c0.405-0.471,1.229-1.438,1.923-1.438c0.301,0,0.458,0.17,0.458,0.458c0,0.235-0.105,0.483-0.184,0.706l-0.929,2.473
	c-0.157,0.405-0.353,0.954-0.353,1.399c0,0.379,0.17,0.589,0.562,0.589c0.537,0,1.321-0.759,1.662-1.139
	c0.104-0.104,0.588-0.706,0.588-0.876c0-0.053-0.052-0.092-0.092-0.092c-0.078,0-0.13,0.078-0.157,0.131
	c-0.222,0.327-0.955,1.242-1.374,1.242c-0.157,0-0.249-0.091-0.249-0.261c0-0.184,0.131-0.498,0.196-0.668L110.703,5.662z"/>
<path fill-rule="evenodd" clip-rule="evenodd" d="M115.674,2.273c0-0.248-0.17-0.457-0.432-0.457c-0.379,0-0.667,0.497-0.667,0.837
	c0,0.249,0.131,0.483,0.406,0.483C115.386,3.136,115.674,2.64,115.674,2.273z M112.927,8.448c-0.092,0.314-0.235,0.812-0.235,1.151
	c0,0.301,0.065,0.523,0.405,0.523c0.549,0,1.282-0.759,1.596-1.151c0.13-0.17,0.549-0.707,0.549-0.929
	c0-0.053-0.013-0.092-0.078-0.092c-0.092,0-0.144,0.092-0.183,0.17c-0.157,0.262-0.824,1.19-1.151,1.19
	c-0.118,0-0.17-0.104-0.17-0.235c0-0.17,0.065-0.354,0.118-0.523l0.968-3.14c0.078-0.235,0.222-0.706,0.222-0.955
	c0-0.287-0.092-0.483-0.406-0.483c-0.497,0-1.216,0.641-1.543,0.955c-0.104,0.104-0.641,0.68-0.641,0.85
	c0,0.065,0.026,0.105,0.078,0.105c0.17,0,0.903-1.151,1.348-1.151c0.13,0,0.157,0.131,0.157,0.235c0,0.117-0.079,0.34-0.104,0.444
	L112.927,8.448z"/>
<rect x="41.225" y="89.041" fill-rule="evenodd" clip-rule="evenodd" fill="#B4162C" width="36.979" height="36.979"/>
<path fill-rule="evenodd" clip-rule="evenodd" d="M53.493,87.842l-12.269-0.001v-7.118h0.229v6.778h12.04V87.842z M56.163,87.842
	h-1.878v-0.341h1.878V87.842z M60.254,87.842h-3.299v-0.341h3.299V87.842z M63.398,87.843l-2.352-0.001v-0.341h2.352V87.843z
	 M64.7,87.843h-0.51v-0.342h0.51V87.843z M78.213,87.843H65.492v-0.342l12.301-0.001l0-6.404h0.42V87.843z M77.792,80.345v-8.127
	h0.42v8.127H77.792z M66.687,71.516h10.943v0.325L66.687,71.516z M58.866,72.581c0.12-0.161,0.457-0.395,0.854-0.395
	c0.499,0,0.902,0.366,0.902,0.497l0.002,2.313h-0.42l-0.002-2.177c0-0.115-0.293-0.441-0.736-0.441
	C59.228,72.378,59.013,72.474,58.866,72.581z M58.58,67.732l1.122-0.824l0.804,0.54c0.232,0.183,0.394,0.437,0.394,0.754v1.256
	h-0.345v-1.26c0-0.271-0.139-0.489-0.337-0.645L59.53,67.09L58.58,67.732z M60.439,60.731l0.001-1.387l-1.827-0.333h2.17l0,1.72
	H60.439z M59.589,57.462v-6.584h0.229v6.584H59.589z M58.453,61.127h2.401l1.816,1.459h-0.48l-1.583-1.29L58.453,61.127z
	 M56.277,62.988h6.471l1.246,5.052l-0.344-0.004l-1.218-4.827L56.277,62.988z M41.206,79.365v-7.319h0.229v7.319H41.206z
	 M65.304,87.09H64.89v-5.994h0.414V87.09z M54.554,80.371h10.149v0.343L54.554,80.371z M76.228,68.466l-1.114-3.15l-10.627-0.261
	h10.894l1.232,3.41L76.228,68.466z M57.377,67.429l2.327-1.499l2.401,1.499v2.401h-0.42v-2.319l-1.981-1.431L57.377,67.429z
	 M59.53,63.912c0-0.095,0.078-0.173,0.173-0.173s0.172,0.078,0.172,0.173c0,0.096-0.077,0.173-0.172,0.173
	S59.53,64.007,59.53,63.912z M59.255,65.489l0.056-0.273l0.582,0.002l-0.19-0.812l0.462,1.084H59.255z M57.229,65.234
	c0-0.084,0.067-0.151,0.151-0.151c0.083,0,0.15,0.067,0.15,0.151c0,0.083-0.067,0.15-0.15,0.15
	C57.296,65.384,57.229,65.317,57.229,65.234z M57.075,66.473l0.019-0.225l0.458,0.002l-0.124-0.629l0.363,0.852H57.075z
	 M44.067,75.006h-0.346v-1.819l-0.616-0.118h0.962V75.006z M53.676,79.366v-7.147h0.409v7.146L53.676,79.366z M42.559,71.516h10.929
	v0.278L42.559,71.516z M53.681,87.09v-5.994h0.404v5.994H53.681z M42.559,80.367h10.929v0.276L42.559,80.367z M42.95,68.662
	l1.09-3.579h11.082v0.259H44.208L42.95,68.662z M77.17,80.77l-11.535-0.403h11.525L77.17,80.77z M46.94,75.006h-0.345v-1.819
	l-0.616-0.118h0.961V75.006z M49.737,75.006h-0.345v-1.819l-0.616-0.118h0.961V75.006z M52.548,75.006h-0.346l0-1.819l-0.617-0.118
	h0.962V75.006z M56.582,75.006h-0.345v-1.819l-0.616-0.118h0.961V75.006z M63.769,75.006h-0.346v-1.819l-0.616-0.118h0.962V75.006z
	 M67.467,75.006h-0.346v-1.819l-0.616-0.118h0.962V75.006z M70.34,75.006h-0.345v-1.819l-0.616-0.118h0.961V75.006z M73.136,75.006
	h-0.345v-1.819l-0.616-0.118h0.961V75.006z M75.947,75.006h-0.346l0-1.819l-0.617-0.118h0.962V75.006z M44.067,83.674l-0.346,0.001
	v-1.819l-0.616-0.118h0.962V83.674z M46.94,83.674l-0.345,0.001v-1.819l-0.616-0.118h0.961V83.674z M49.737,83.674l-0.345,0.001
	v-1.819l-0.616-0.118h0.961V83.674z M52.548,83.674l-0.346,0.001l0-1.819l-0.617-0.118h0.962V83.674z M67.467,83.674l-0.346,0.001
	v-1.819l-0.616-0.118h0.962V83.674z M70.34,83.674l-0.345,0.001v-1.819l-0.616-0.118h0.961V83.674z M73.136,83.674l-0.345,0.001
	v-1.819l-0.616-0.118h0.961V83.674z M75.947,83.674l-0.346,0.001l0-1.819l-0.617-0.118h0.962V83.674z M44.067,86.828h-0.346v-1.329
	l-0.616-0.118h0.962V86.828z M46.94,86.828h-0.345v-1.329l-0.616-0.118h0.961V86.828z M49.737,86.828h-0.345v-1.329l-0.616-0.118
	h0.961V86.828z M52.548,86.828h-0.346l0-1.329l-0.617-0.118h0.962V86.828z M67.467,86.828h-0.346v-1.329l-0.616-0.118h0.962V86.828z
	 M70.34,86.828h-0.345v-1.329l-0.616-0.118h0.961V86.828z M73.136,86.828h-0.345v-1.329l-0.616-0.118h0.961V86.828z M75.947,86.828
	h-0.346l0-1.329l-0.617-0.118h0.962V86.828z M55.034,70.668l-0.34,0.006v-1.878l-0.579-0.171h0.919V70.668z M55.034,68.031h-0.846
	v-0.333h0.475l-0.235-1.371L55.034,68.031z M65.282,70.668l-0.34,0.006v-1.878l-0.579-0.171h0.919V70.668z M65.282,68.031h-0.846
	v-0.333h0.475l-0.235-1.371L65.282,68.031z M78.213,70.973h-0.336l0-2.21l-0.865-0.338h1.202V70.973z M78.213,68.014h-1.139v-0.322
	h0.744l-0.3-2.088L78.213,68.014z M42.279,70.973h-0.336v-2.21l-0.866-0.338h1.202V70.973z M42.279,68.014H41.14v-0.322h0.744
	l-0.3-2.088L42.279,68.014z M61.794,65.234c0-0.084,0.067-0.151,0.15-0.151c0.083,0,0.151,0.067,0.151,0.151
	c0,0.083-0.067,0.15-0.151,0.15C61.861,65.384,61.794,65.317,61.794,65.234z M61.627,66.473l0.019-0.225l0.458,0.002l-0.125-0.629
	l0.363,0.852H61.627z M60.868,87.09h-0.449l-0.003-4.342c0.004-0.638-0.438-1.08-0.983-1.08c-0.247,0-0.472,0.091-0.645,0.24
	c0.211-0.279,0.546-0.459,0.923-0.459c0.64,0,1.159,0.519,1.159,1.159L60.868,87.09z M63.961,87.09h-0.358l-0.002-4.113
	c0.003-0.493-0.305-0.835-0.684-0.835c-0.193,0-0.367,0.088-0.492,0.23c0.153-0.24,0.406-0.397,0.691-0.397
	c0.467,0,0.846,0.421,0.846,0.94L63.961,87.09z M56.751,87.09h-0.358l-0.002-4.113c0.003-0.493-0.305-0.835-0.684-0.835
	c-0.193,0-0.367,0.088-0.492,0.23c0.153-0.24,0.405-0.397,0.691-0.397c0.467,0,0.846,0.421,0.846,0.94L56.751,87.09z M63.777,79.365
	h-0.331l0-2.105c0.001-0.212-0.146-0.359-0.327-0.359c-0.095,0-0.18,0.04-0.24,0.104c0.082-0.146,0.239-0.245,0.418-0.245
	c0.265,0,0.48,0.216,0.48,0.48L63.777,79.365z M60.274,79.365l-0.002-2.081c0.003-0.492-0.337-0.833-0.758-0.833
	c-0.289,0-0.541,0.162-0.669,0.399c0.135-0.354,0.478-0.607,0.881-0.607c0.52,0,0.941,0.422,0.941,0.941l-0.001,2.181H60.274z
	 M56.614,79.365h-0.331l0-2.105c0.001-0.212-0.146-0.359-0.327-0.359c-0.095,0-0.18,0.04-0.24,0.104
	c0.082-0.146,0.239-0.245,0.418-0.245c0.265,0,0.48,0.216,0.48,0.48L56.614,79.365z M67.477,79.365h-0.331l0-2.105
	C67.148,77.047,67,76.9,66.819,76.9c-0.095,0-0.18,0.04-0.24,0.104c0.083-0.146,0.239-0.245,0.418-0.245
	c0.265,0,0.48,0.216,0.48,0.48L67.477,79.365z M70.316,79.365h-0.331l-0.001-2.105c0.001-0.212-0.146-0.359-0.327-0.359
	c-0.095,0-0.18,0.04-0.24,0.104c0.083-0.146,0.239-0.245,0.418-0.245c0.266,0,0.48,0.216,0.48,0.48L70.316,79.365z M73.129,79.365
	h-0.331l-0.001-2.105c0.001-0.212-0.146-0.359-0.327-0.359c-0.094,0-0.18,0.04-0.24,0.104c0.083-0.146,0.239-0.245,0.418-0.245
	c0.266,0,0.48,0.216,0.48,0.48L73.129,79.365z M75.917,79.365h-0.33l-0.001-2.105c0.001-0.212-0.146-0.359-0.327-0.359
	c-0.095,0-0.18,0.04-0.24,0.104c0.083-0.146,0.239-0.245,0.418-0.245c0.265,0,0.48,0.216,0.48,0.48L75.917,79.365z M52.525,79.365
	h-0.331l-0.001-2.105c0.001-0.212-0.146-0.359-0.327-0.359c-0.095,0-0.18,0.04-0.24,0.104c0.083-0.146,0.239-0.245,0.418-0.245
	c0.266,0,0.48,0.216,0.48,0.48L52.525,79.365z M49.737,79.365h-0.331l0-2.105c0.001-0.212-0.146-0.359-0.327-0.359
	c-0.095,0-0.18,0.04-0.24,0.104c0.082-0.146,0.239-0.245,0.418-0.245c0.265,0,0.48,0.216,0.48,0.48L49.737,79.365z M46.924,79.365
	h-0.331l-0.001-2.105c0.001-0.212-0.146-0.359-0.327-0.359c-0.094,0-0.18,0.04-0.24,0.104c0.083-0.146,0.239-0.245,0.418-0.245
	c0.266,0,0.48,0.216,0.48,0.48L46.924,79.365z M44.085,79.365h-0.331l-0.001-2.105c0.001-0.212-0.146-0.359-0.327-0.359
	c-0.095,0-0.18,0.04-0.24,0.104c0.083-0.146,0.239-0.245,0.418-0.245c0.265,0,0.48,0.216,0.48,0.48L44.085,79.365z M51.845,67.618
	c0-0.081,0.066-0.147,0.147-0.147c0.082,0,0.147,0.066,0.147,0.147s-0.066,0.147-0.147,0.147
	C51.911,67.765,51.845,67.699,51.845,67.618z M52.409,69.865h-0.304v-1.427c0-0.224-0.154-0.379-0.346-0.379
	c-0.061,0-0.118,0.016-0.168,0.044c0.087-0.087,0.207-0.14,0.339-0.14c0.265,0,0.479,0.215,0.479,0.48V69.865z M49.428,67.618
	c0-0.081,0.066-0.147,0.147-0.147c0.081,0,0.147,0.066,0.147,0.147s-0.066,0.147-0.147,0.147
	C49.494,67.765,49.428,67.699,49.428,67.618z M49.992,69.865h-0.305v-1.427c0-0.224-0.154-0.379-0.345-0.379
	c-0.061,0-0.118,0.016-0.168,0.044c0.087-0.087,0.207-0.14,0.338-0.14c0.265,0,0.479,0.215,0.479,0.48V69.865z M46.805,67.618
	c0-0.081,0.066-0.147,0.147-0.147c0.081,0,0.147,0.066,0.147,0.147s-0.066,0.147-0.147,0.147
	C46.871,67.765,46.805,67.699,46.805,67.618z M47.369,69.865h-0.305v-1.427c0-0.224-0.154-0.379-0.345-0.379
	c-0.061,0-0.118,0.016-0.168,0.044c0.087-0.087,0.207-0.14,0.338-0.14c0.265,0,0.479,0.215,0.479,0.48V69.865z M48.469,66.835
	h-0.267v-0.675c0-0.195-0.135-0.331-0.302-0.331c-0.053,0-0.104,0.014-0.147,0.038c0.076-0.076,0.181-0.122,0.296-0.122
	c0.232,0,0.419,0.188,0.419,0.42V66.835z M51.266,66.835H51v-0.675c0-0.195-0.135-0.331-0.302-0.331
	c-0.053,0-0.103,0.014-0.146,0.038c0.076-0.076,0.181-0.122,0.296-0.122c0.232,0,0.419,0.188,0.419,0.42V66.835z M68.563,66.835
	h-0.266v-0.675c0-0.195-0.135-0.331-0.302-0.331c-0.053,0-0.103,0.014-0.146,0.038c0.076-0.076,0.18-0.122,0.296-0.122
	c0.232,0,0.419,0.188,0.419,0.42V66.835z M67.136,67.618c0-0.081,0.066-0.147,0.147-0.147c0.081,0,0.147,0.066,0.147,0.147
	s-0.066,0.147-0.147,0.147C67.202,67.765,67.136,67.699,67.136,67.618z M67.7,69.865h-0.305v-1.427c0-0.224-0.154-0.379-0.346-0.379
	c-0.061,0-0.118,0.016-0.167,0.044c0.087-0.087,0.207-0.14,0.338-0.14c0.265,0,0.479,0.215,0.479,0.48V69.865z M71.408,66.835
	h-0.267v-0.675c0-0.195-0.135-0.331-0.302-0.331c-0.053,0-0.104,0.014-0.147,0.038c0.076-0.076,0.181-0.122,0.296-0.122
	c0.232,0,0.419,0.188,0.419,0.42V66.835z M69.79,67.618c0-0.081,0.066-0.147,0.147-0.147c0.082,0,0.147,0.066,0.147,0.147
	s-0.066,0.147-0.147,0.147C69.856,67.765,69.79,67.699,69.79,67.618z M70.354,69.865H70.05v-1.427c0-0.224-0.154-0.379-0.346-0.379
	c-0.061,0-0.118,0.016-0.168,0.044c0.087-0.087,0.207-0.14,0.339-0.14c0.265,0,0.479,0.215,0.479,0.48V69.865z M72.208,67.618
	c0-0.081,0.066-0.147,0.147-0.147c0.081,0,0.147,0.066,0.147,0.147s-0.066,0.147-0.147,0.147
	C72.274,67.765,72.208,67.699,72.208,67.618z M72.772,69.865h-0.305v-1.427c0-0.224-0.154-0.379-0.345-0.379
	c-0.061,0-0.118,0.016-0.168,0.044c0.087-0.087,0.207-0.14,0.338-0.14c0.266,0,0.479,0.215,0.479,0.48V69.865z M43.546,59.35
	c0-0.089,0.072-0.16,0.16-0.16c0.089,0,0.161,0.071,0.161,0.16c0,0.088-0.072,0.16-0.161,0.16
	C43.617,59.51,43.546,59.438,43.546,59.35z M44.502,64.578h-0.342l-0.002-1.795c0.003-0.472-0.324-0.799-0.728-0.799
	c-0.129,0-0.25,0.033-0.356,0.092c0.151-0.122,0.343-0.194,0.552-0.194c0.485,0,0.876,0.393,0.876,0.878V64.578z M44.34,61.479
	h-1.066l0.002-0.347l0.671,0.006l-0.213-1.362L44.34,61.479z M75.115,59.35c0-0.089,0.072-0.16,0.16-0.16s0.16,0.071,0.16,0.16
	c0,0.088-0.072,0.16-0.16,0.16S75.115,59.438,75.115,59.35z M76.071,64.578h-0.342l-0.002-1.795
	c0.003-0.472-0.324-0.799-0.728-0.799c-0.129,0-0.25,0.033-0.356,0.092c0.151-0.122,0.343-0.194,0.552-0.194
	c0.485,0,0.876,0.393,0.876,0.878V64.578z M75.909,61.479h-1.066l0.002-0.347l0.671,0.006l-0.213-1.362L75.909,61.479z
	 M59.704,57.858c0.442,0,0.804,0.348,0.826,0.784h-0.284c-0.06-0.324-0.345-0.57-0.687-0.57c-0.328,0-0.602,0.226-0.678,0.529
	C58.923,58.183,59.276,57.858,59.704,57.858z M62.234,71.269h2.47v0.335l-2.618-0.068c-0.278-0.698-1.31-1.212-2.532-1.212
	c-1.145,0-2.117,0.454-2.464,1.086c0.33-0.692,1.373-1.199,2.607-1.199C60.846,70.21,61.829,70.65,62.234,71.269z M65.304,71.907
	v7.479h-0.399l-0.012-7.479H65.304z"/>
</svg>
